<svg id="Layer_1" data-name="Layer 1" xmlns="http://www.w3.org/2000/svg" viewBox="0 0 202.22 21.1"><defs><style>.cls-1{fill:#231f20;}</style></defs><title>Untitled-1</title><path class="cls-1" d="M20.55,14.18H18.29v6.43H17.95a2.75,2.75,0,0,0-.51-0.43,1.31,1.31,0,0,0-.62-0.11,2.26,2.26,0,0,0-1,.27L14.56,21a10,10,0,0,1-1.63.61,8.26,8.26,0,0,1-2.27.27,9,9,0,0,1-3.57-.67,9.65,9.65,0,0,1-3-2.11,12.23,12.23,0,0,1-2.35-3.34,9.81,9.81,0,0,1-.93-4.33,10.57,10.57,0,0,1,.37-2.9,11.1,11.1,0,0,1,.89-2.25A9.59,9.59,0,0,1,3.15,4.61q0.55-.65.92-1A10.62,10.62,0,0,1,7,1.52,8.49,8.49,0,0,1,10.72.73,7.66,7.66,0,0,1,12.49.9a8.18,8.18,0,0,1,1.2.38l0.92,0.38a2.39,2.39,0,0,0,.92.17,1.55,1.55,0,0,0,.81-0.16,2,2,0,0,0,.47-0.44h0.42V6.9H16.93a11.18,11.18,0,0,0-.44-1.73,6.4,6.4,0,0,0-1-1.9,5.7,5.7,0,0,0-1.84-1.53,6.11,6.11,0,0,0-2.93-.62A5.89,5.89,0,0,0,7.28,2a6.09,6.09,0,0,0-2,2.35,10.42,10.42,0,0,0-1,3.3,28.64,28.64,0,0,0-.24,3.71q0,1.27.11,2.55a16.74,16.74,0,0,0,.38,2.41,9.6,9.6,0,0,0,.75,2.1,5.4,5.4,0,0,0,1.25,1.64,5,5,0,0,0,1.76,1.06,7.7,7.7,0,0,0,2.35.3,5.46,5.46,0,0,0,1.76-.3A4.74,4.74,0,0,0,14,20.24a4.54,4.54,0,0,0,1.13-1.51,5,5,0,0,0,.44-2.17V14.18H11.91v-0.4h8.64v0.4Z" transform="translate(-0.81 -0.73)"/><path class="cls-1" d="M22.22,21h3.14V1.63H22.22V1.24h6.06l0.68,0h1.36a20.91,20.91,0,0,1,2.95.18A4.92,4.92,0,0,1,35.64,2.4,4.36,4.36,0,0,1,37,4.13a4.64,4.64,0,0,1,.41,1.81A5,5,0,0,1,37.3,7a3.67,3.67,0,0,1-.68,1.36A5,5,0,0,1,35.1,9.66a6.83,6.83,0,0,1-2.63.78V10.5q0.45,0.06,1.23.21a7.25,7.25,0,0,1,1.59.52,5.87,5.87,0,0,1,1.49,1,3.31,3.31,0,0,1,1,1.57A6.85,6.85,0,0,1,38,15.07q0.07,0.72.11,1.49T38.18,18a7.07,7.07,0,0,0,.16,1.19,4.37,4.37,0,0,0,.54,1.33,1.29,1.29,0,0,0,1.19.59A2.27,2.27,0,0,0,40.83,21a1.9,1.9,0,0,0,.71-0.45l0.25,0.31-0.33.24a2.34,2.34,0,0,1-.47.24,3.54,3.54,0,0,1-.69.18,6.17,6.17,0,0,1-1,.07,5.38,5.38,0,0,1-1.88-.28,2.78,2.78,0,0,1-1.2-.84,3.52,3.52,0,0,1-.67-1.36,10.78,10.78,0,0,1-.3-1.88L35,14.66a5.36,5.36,0,0,0-.57-2.21,3.13,3.13,0,0,0-1.06-1.16,3.09,3.09,0,0,0-1.26-.44A11,11,0,0,0,31,10.78H28.19V21h3.14v0.4H22.22V21Zm6-10.62H30.8a4.94,4.94,0,0,0,1.44-.2,2.52,2.52,0,0,0,1.12-.69,3.33,3.33,0,0,0,.72-1.35A7.65,7.65,0,0,0,34.34,6,6.1,6.1,0,0,0,34,3.63a3.19,3.19,0,0,0-1-1.35,3.27,3.27,0,0,0-1.36-.59,8,8,0,0,0-1.49-.14h-1a7.19,7.19,0,0,0-.89.07v8.75Z" transform="translate(-0.81 -0.73)"/><path class="cls-1" d="M44.08,21h3.14V1.63H44.08V1.24h16.2v4.9H60a14.24,14.24,0,0,0-.79-1.94,5.33,5.33,0,0,0-1-1.42,3.77,3.77,0,0,0-1.42-.86,6.12,6.12,0,0,0-2-.28h-4.7v8.75H51.9a6.34,6.34,0,0,0,1.59-.17,2.41,2.41,0,0,0,1.12-.64A3.77,3.77,0,0,0,55.4,8.3,15.46,15.46,0,0,0,56,6.22h0.31V15H56q-0.2-.82-0.41-1.59A5,5,0,0,0,55,12.08a2.81,2.81,0,0,0-1-.95,3.41,3.41,0,0,0-1.66-.35H50.06V21h5.35A4.69,4.69,0,0,0,58,20.34a6,6,0,0,0,1.69-1.59,6.87,6.87,0,0,0,1-1.91,10,10,0,0,0,.4-1.64h0.31v6.2H44.08V21Z" transform="translate(-0.81 -0.73)"/><path class="cls-1" d="M63.34,21h2.49L73.48,0.73h0.68L81.86,21h2.52v0.4H75.66V21H78.8l-3-7.87H69.26l-3,7.87h3.14v0.4H63.34V21ZM72.54,4.49l-3.12,8.24h6.23Z" transform="translate(-0.81 -0.73)"/><path class="cls-1" d="M87.55,21h3.14V1.63H89.05a9.33,9.33,0,0,0-1.27.1,3.66,3.66,0,0,0-1.43.55A4.9,4.9,0,0,0,85,3.71a9.29,9.29,0,0,0-1.15,2.71H83.5V1.24h17.22V6.42h-0.31a9.32,9.32,0,0,0-1.15-2.71,4.91,4.91,0,0,0-1.39-1.43,3.67,3.67,0,0,0-1.43-.55,9.35,9.35,0,0,0-1.27-.1H93.53V21h3.14v0.4H87.55V21Z" transform="translate(-0.81 -0.73)"/><path class="cls-1" d="M102.84,21H106V1.63h-3.14V1.24H112v0.4h-3.14v9.26h9.43V1.63H115.1V1.24h9.12v0.4h-3.14V21h3.14v0.4H115.1V21h3.14V11.29h-9.43V21H112v0.4h-9.12V21Z" transform="translate(-0.81 -0.73)"/><path class="cls-1" d="M126.39,11.29a9.85,9.85,0,0,1,.89-4.19,11.67,11.67,0,0,1,2.3-3.34,10.7,10.7,0,0,1,3.16-2.22,8.35,8.35,0,0,1,3.51-.81,8.69,8.69,0,0,1,3.64.81A10.53,10.53,0,0,1,143,3.76a11,11,0,0,1,2.22,3.34,10.41,10.41,0,0,1,.84,4.19,10.3,10.3,0,0,1-.77,3.88,11.24,11.24,0,0,1-2.1,3.37,10.62,10.62,0,0,1-3.13,2.38,8.48,8.48,0,0,1-3.87.91,8.92,8.92,0,0,1-3.94-.88,10.09,10.09,0,0,1-3.13-2.34,10.72,10.72,0,0,1-2.05-3.37A10.91,10.91,0,0,1,126.39,11.29Zm3.26,0a25.59,25.59,0,0,0,.34,4.45,9,9,0,0,0,1.13,3.17,5,5,0,0,0,2,1.9,7.92,7.92,0,0,0,6.16,0,5,5,0,0,0,2.05-1.9,9,9,0,0,0,1.13-3.17,25.36,25.36,0,0,0,.34-4.45,27.26,27.26,0,0,0-.26-3.78,10.38,10.38,0,0,0-1-3.26,5.82,5.82,0,0,0-2-2.28,7.06,7.06,0,0,0-6.72,0,5.82,5.82,0,0,0-2,2.28,10.38,10.38,0,0,0-1,3.26A27.26,27.26,0,0,0,129.64,11.29Z" transform="translate(-0.81 -0.73)"/><path class="cls-1" d="M147.33,1.24h9.12v0.4h-3.14V15.31a11.91,11.91,0,0,0,.3,2.88,4.79,4.79,0,0,0,.89,1.9,3.3,3.3,0,0,0,1.47,1,6,6,0,0,0,2,.31,7.81,7.81,0,0,0,2.81-.47,4.68,4.68,0,0,0,2.1-1.66,6.34,6.34,0,0,0,.5-0.74,4.33,4.33,0,0,0,.37-0.86,6.66,6.66,0,0,0,.24-1.19,14.25,14.25,0,0,0,.09-1.71V1.63h-3.14V1.24h6.71v0.4h-3.14V15.37a8.66,8.66,0,0,1-.25,2.17,5.89,5.89,0,0,1-1,2,5.39,5.39,0,0,1-2.13,1.64,8.73,8.73,0,0,1-3.6.62,7.36,7.36,0,0,1-5.2-1.67,6.68,6.68,0,0,1-1.8-5.13V1.63h-3.14V1.24Z" transform="translate(-0.81 -0.73)"/><path class="cls-1" d="M169.32,15.31h0.31a11.42,11.42,0,0,0,.81,2.58,7.45,7.45,0,0,0,1.09,1.73,4.83,4.83,0,0,0,1.25,1,5.36,5.36,0,0,0,1.32.54,6.36,6.36,0,0,0,1.27.2l1.15,0A5.79,5.79,0,0,0,179,21a4.3,4.3,0,0,0,1.53-1.15,4.17,4.17,0,0,0,.79-1.5,5.59,5.59,0,0,0,.23-1.49,3.62,3.62,0,0,0-.37-1.7,4.06,4.06,0,0,0-.93-1.2,5.24,5.24,0,0,0-1.23-.81,8.45,8.45,0,0,0-1.26-.48l-3.26-1A8.39,8.39,0,0,1,171,9.79a4.18,4.18,0,0,1-1.18-3.12,6.11,6.11,0,0,1,.45-2.37,5.54,5.54,0,0,1,1.27-1.88,5.93,5.93,0,0,1,2-1.25A6.76,6.76,0,0,1,176,.73a6.85,6.85,0,0,1,1.66.17,7.46,7.46,0,0,1,1.15.38l0.86,0.38a1.92,1.92,0,0,0,.78.17,0.86,0.86,0,0,0,.5-0.1,1.9,1.9,0,0,0,.36-0.5h0.4V6.36h-0.34a8.61,8.61,0,0,0-.58-2,6.11,6.11,0,0,0-1.06-1.67,5,5,0,0,0-1.57-1.16A4.92,4.92,0,0,0,176,1.12a6.92,6.92,0,0,0-1.5.18,4.76,4.76,0,0,0-1.53.64,3.86,3.86,0,0,0-1.18,1.19A3.44,3.44,0,0,0,171.36,5a3.05,3.05,0,0,0,.37,1.54,3.59,3.59,0,0,0,.95,1.08,5.82,5.82,0,0,0,1.3.74q0.72,0.3,1.46.52L178.87,10l1.36,0.45a6.07,6.07,0,0,1,1.6.85,4.94,4.94,0,0,1,1.33,1.5,4.64,4.64,0,0,1,.55,2.38,6.6,6.6,0,0,1-.5,2.53,6.33,6.33,0,0,1-1.43,2.12,7,7,0,0,1-2.27,1.47,7.78,7.78,0,0,1-3,.55h-1a7.56,7.56,0,0,1-.85-0.07l-0.79-.13a8.24,8.24,0,0,1-.88-0.21l-1.22-.4a3.53,3.53,0,0,0-1.13-.23A0.77,0.77,0,0,0,170,21a1.48,1.48,0,0,0-.27.45h-0.42V15.31Z" transform="translate(-0.81 -0.73)"/><path class="cls-1" d="M185.74,21h3.14V1.63h-3.14V1.24h16.2v4.9h-0.31a14.38,14.38,0,0,0-.79-1.94,5.35,5.35,0,0,0-1-1.42,3.77,3.77,0,0,0-1.42-.86,6.11,6.11,0,0,0-2-.28h-4.7v8.75h1.84a6.34,6.34,0,0,0,1.59-.17,2.41,2.41,0,0,0,1.12-.64,3.75,3.75,0,0,0,.79-1.27,15.28,15.28,0,0,0,.64-2.08H198V15H197.7c-0.13-.55-0.27-1.08-0.41-1.59a5,5,0,0,0-.59-1.36,2.82,2.82,0,0,0-1-.95,3.41,3.41,0,0,0-1.66-.35h-2.29V21h5.36a4.69,4.69,0,0,0,2.59-.67,6,6,0,0,0,1.69-1.59,6.88,6.88,0,0,0,1-1.91,10.16,10.16,0,0,0,.4-1.64H203v6.2H185.74V21Z" transform="translate(-0.81 -0.73)"/></svg>