<svg id="Layer_1" data-name="Layer 1" xmlns="http://www.w3.org/2000/svg" viewBox="0 0 47.8 61.44"><defs><style>.cls-1{fill:#fff;}</style></defs><title>social_pinterest_hover</title><path id="Pinterest" class="cls-1" d="M19.65,40.63C18,49.09,16.07,57.2,10.23,61.43c-1.8-12.78,2.65-22.38,4.71-32.58-3.52-5.93.42-17.86,7.85-14.92,9.14,3.61-7.91,22,3.53,24.34,12,2.4,16.83-20.74,9.42-28.26C25-.85,4.57,9.77,7.09,25.32c.61,3.8,4.54,5,1.57,10.21C1.81,34-.24,28.61,0,21.4.45,9.6,10.62,1.34,20.83.2c12.88-1.44,25,4.74,26.69,16.88,1.88,13.7-5.81,28.55-19.63,27.48C24.15,44.27,22.58,42.42,19.65,40.63Z" transform="translate(0 0.01)"/></svg>