<svg id="Layer_1" data-name="Layer 1" xmlns="http://www.w3.org/2000/svg" viewBox="0 0 60.95 60.95"><defs><style>.cls-1{fill:#777;}</style></defs><title>social_media</title><path id="Instagram" class="cls-1" d="M55,1H8.52A7.24,7.24,0,0,0,1.27,8.25v46.5A7.24,7.24,0,0,0,8.52,62H55a7.24,7.24,0,0,0,7.25-7.23V8.25A7.24,7.24,0,0,0,55,1ZM43.61,9.67A1.7,1.7,0,0,1,45.32,8h8.24a1.7,1.7,0,0,1,1.7,1.7v8.22a1.7,1.7,0,0,1-1.7,1.7H45.32a1.7,1.7,0,0,1-1.7-1.7V9.67ZM31.82,19.88A11.69,11.69,0,1,1,20.1,31.57,11.71,11.71,0,0,1,31.82,19.88ZM55.41,53.19a1.7,1.7,0,0,1-1.7,1.7H9.94a1.7,1.7,0,0,1-1.71-1.7V26.68h5.7a18.54,18.54,0,1,0,35.77,0h5.7V53.19Z" transform="translate(-1.27 -1.02)"/></svg>