<svg id="Layer_1" data-name="Layer 1" xmlns="http://www.w3.org/2000/svg" viewBox="0 0 45.39 60.88"><defs><style>.cls-1{fill:#777;}</style></defs><title>social_media</title><path id="Yelp" class="cls-1" d="M7.84,2.94c3.1-2.4,9-3.1,11.4-2.6s3.7,1.8,3.7,3.4L23,24.84c0,1.7-.9,3.2-1.9,3.4s-2.6-.8-3.5-2.2L6.64,8C5.74,6.54,4,5.94,7.84,2.94Zm-3.7,40.2,11.2-4c1.6-.6,3-2.1,3.1-3.4s-1-2.9-2.5-3.5l-11.8-4.7c-1.5-.6-3.3.8-3.8,3.2,0,0-.3,8.2,0,9.9A3.23,3.23,0,0,0,4.14,43.14Zm19.5,2c0-1.7-.9-3.1-2-3.2s-2.9.9-4,2.1l-7.8,9.3c-1.1,1.3-.5,4.3,1,4.8l8.1,2.8c1.6,0.6,4.3-1.1,4.3-2.8ZM43,42.94l-9.8-2.8c-1.6-.5-3.4-0.4-4,0.1s-0.5,2.1.3,3.6l6.2,11.3c0.8,1.5,4,1.2,4.9-.2,0,0,3.7-5.5,4.4-7.5A3.44,3.44,0,0,0,43,42.94ZM45.34,27c-0.4-1.4-3.5-5.6-5.1-7.1s-3.5-1.3-4.6,0l-6.3,7.5c-1.1,1.3-1.4,3.3-.6,4.4a4.18,4.18,0,0,0,4.2,1.5l10.9-2C45.74,30.94,45.84,28.54,45.34,27Z" transform="translate(-0.21 -0.19)"/></svg>