<svg id="Layer_1" data-name="Layer 1" xmlns="http://www.w3.org/2000/svg" viewBox="0 0 60.98 61"><defs><style>.cls-1{fill:#fff;}</style></defs><title>social_instagram_hover</title><path id="Instagram" class="cls-1" d="M53.73,0H7.25A7.24,7.24,0,0,0,0,7.21s0,0,0,0v46.5A7.24,7.24,0,0,0,7.23,61h46.5A7.24,7.24,0,0,0,61,53.75h0V7.23A7.24,7.24,0,0,0,53.75,0ZM42.34,8.65A1.7,1.7,0,0,1,44,7h8.24A1.7,1.7,0,0,1,54,8.68h0V16.9a1.7,1.7,0,0,1-1.7,1.7H44a1.7,1.7,0,0,1-1.7-1.7h0V8.65ZM30.55,18.86A11.69,11.69,0,1,1,18.83,30.55,11.69,11.69,0,0,1,30.55,18.86ZM54.14,52.17a1.7,1.7,0,0,1-1.7,1.7H8.67A1.7,1.7,0,0,1,7,52.18H7V25.66h5.7a18.54,18.54,0,1,0,35.77,0h5.7V52.17Z" transform="translate(0 0.02)"/></svg>