<svg id="Layer_1" data-name="Layer 1" xmlns="http://www.w3.org/2000/svg" viewBox="0 0 126.71 55.39"><defs><style>.cls-1{fill:#2f2f2f;fill-rule:evenodd;}</style></defs><title>social_media</title><g id="PIN_IT" data-name="PIN IT"><path class="cls-1" d="M50.87,19.69A5.41,5.41,0,0,0,56,15.28a3.52,3.52,0,0,0-3.53-4.35,5.42,5.42,0,0,0-5.09,4.35,3.52,3.52,0,0,0,3.53,4.41h0Z" transform="translate(-0.44 -0.18)"/><path class="cls-1" d="M83.41,43.06a2.67,2.67,0,0,1-1.81.77c-1.67,0-2.38-.85-2.38-2.65,0-2.82,2.82-10,2.82-13.19,0-4.3-2.33-6.81-7.09-6.81a10.46,10.46,0,0,0-7.44,3.64s0.41-1.4.55-1.92a0.86,0.86,0,0,0-.9-1.12H62.51a1.29,1.29,0,0,0-1.42,1.09C61,23.11,59.36,29.68,57.74,36c-1.09,4.3-3.78,7.91-6.62,7.91C49.64,43.88,49,43,49,41.39c0-1.34.88-4.68,1.92-8.81,1.29-5,2.41-9.17,2.52-9.66a0.86,0.86,0,0,0-.93-1.15H47.81a1.25,1.25,0,0,0-1.34,1.07s-1.31,5-2.71,10.48c-1,4-2.13,8.13-2.13,10,0,3.42,1.56,6,5.8,6a10.69,10.69,0,0,0,7.85-3.75c-0.27,1.15-.47,1.86-0.49,1.94a0.85,0.85,0,0,0,.82,1.23H60.4a1.17,1.17,0,0,0,1.31-1.07C61.88,47,65.46,33,65.46,33c1-3.75,3.28-6.24,6.57-6.24a2.61,2.61,0,0,1,2.76,3C74.63,32,71.95,39.89,71.95,43.34c0,2.63,1,6,5.94,6a9.87,9.87,0,0,0,7.69-3.72Z" transform="translate(-0.44 -0.18)"/><path class="cls-1" d="M23.26,0.18C8.1,0.18.44,11,.44,20,0.44,25.52,2.52,30.39,7,32.2a1.07,1.07,0,0,0,1.59-.79c0.16-.55.52-2,0.66-2.55a1.53,1.53,0,0,0-.47-1.78,9.15,9.15,0,0,1-2.11-6.24c0-8,6-15.24,15.74-15.24C31,5.6,35.66,10.82,35.66,17.8c0,9.17-4.08,16.91-10.13,16.91a4.94,4.94,0,0,1-5-6.13c1-4,2.82-8.37,2.82-11.28,0-2.63-1.4-4.79-4.3-4.79-3.42,0-6.16,3.53-6.16,8.24a12.23,12.23,0,0,0,1,5s-3.5,14.75-4.1,17.32c-1.23,5.15-.19,11.47-0.08,12.1a0.41,0.41,0,0,0,.38.36h0a0.51,0.51,0,0,0,.33-0.19C10.75,55,14.8,50,16.2,45c0.38-1.42,2.24-8.73,2.24-8.73,1.1,2.11,4.35,4,7.8,4,10.26,0,17.21-9.33,17.21-21.81,0-9.44-8-18.23-20.2-18.23h0Z" transform="translate(-0.44 -0.18)"/><path class="cls-1" d="M102.57,19.69a5.36,5.36,0,0,0,5-4.38A3.51,3.51,0,0,0,104.1,11,5.39,5.39,0,0,0,99,15.31a3.51,3.51,0,0,0,3.53,4.38h0Z" transform="translate(-0.44 -0.18)"/><path class="cls-1" d="M123.18,40.9c-1.12,1.67-2.66,2.9-4.21,2.9s-2.27-.93-2.27-2.49c0-1.34.93-4.63,2-8.73,0.36-1.37.88-3.48,1.48-5.8H125a1.19,1.19,0,0,0,1.31-1c0.25-1,.66-2.65.79-3.12,0-.11,0-0.19,0-0.27v0a0.79,0.79,0,0,0-.9-0.77h-4.82l2.27-9a1,1,0,0,0-1.31-1.26l-4.41.88a1.79,1.79,0,0,0-1.48,1.51c0,0.14-2,7.88-2,7.88H110.7a1.15,1.15,0,0,0-1.31,1c-0.25,1-.68,2.68-0.79,3.15a0.81,0.81,0,0,0,.88,1.07h3.78c0,0.11-1.37,5.17-2.44,9.71-0.52,2.16-3.61,7.28-6.4,7.28-1.45,0-3.72-.93-3.72-2.46,0-1.34.88-4.68,1.92-8.78,1.26-5,2.38-9.14,2.49-9.61a0.87,0.87,0,0,0-.93-1.18H99.51a1.23,1.23,0,0,0-1.31,1.07s-1.31,5-2.71,10.45c-1,4-2.13,8.07-2.13,10,0,3.39,4.65,6,8.87,6a9.55,9.55,0,0,0,7.53-3.64c0.68,2.19,2.41,3.69,5.64,3.69,5.34,0,8.54-3.17,10.43-6.32Z" transform="translate(-0.44 -0.18)"/></g></svg>