<svg id="Layer_1" data-name="Layer 1" xmlns="http://www.w3.org/2000/svg" viewBox="0 0 73.4 59.7"><defs><style>.cls-1{fill:#fff;}</style></defs><title>social_twitter_hover</title><g id="twitter"><path id="twitter-2" class="cls-1" d="M73.4,7a31.1,31.1,0,0,1-8.7,2.4,15.12,15.12,0,0,0,6.6-8.3,30.92,30.92,0,0,1-9.6,3.7A14.78,14.78,0,0,0,50.8,0,15.09,15.09,0,0,0,35.7,15.08s0,0,0,0a12.67,12.67,0,0,0,.4,3.4A43,43,0,0,1,5,2.8a14.86,14.86,0,0,0-2,7.6A15.12,15.12,0,0,0,9.7,22.9,15.34,15.34,0,0,1,2.9,21v.2A15.12,15.12,0,0,0,15,36a17.52,17.52,0,0,1-4,.5,12.65,12.65,0,0,1-2.8-.3A15.21,15.21,0,0,0,22.3,46.7,30.63,30.63,0,0,1,3.6,53.1c-1.2,0-2.4-.1-3.6-.2a42.57,42.57,0,0,0,23.1,6.8c27.7,0,42.9-23,42.9-42.9V14.9A32.67,32.67,0,0,0,73.4,7Z" transform="translate(0 0)"/></g></svg>