<svg id="Layer_1" data-name="Layer 1" xmlns="http://www.w3.org/2000/svg" viewBox="0 0 35.45 61.8"><defs><style>.cls-1{fill:#777;}</style></defs><title>social_media</title><path class="cls-1" d="M35.68,58.38c-2.1,2-6.41,3.52-10.54,3.59H24.67C11.08,62,7.45,51.6,7.45,45.47V26.63a0.28,0.28,0,0,0-.28-0.28H0.6a0.28,0.28,0,0,1-.28-0.28V17.48A0.28,0.28,0,0,1,.5,17.23c7-2.73,10.95-8.17,12-16.57A0.49,0.49,0,0,1,12.92.18H21.7A0.28,0.28,0,0,1,22,.46V15.54a0.28,0.28,0,0,0,.28.28H33.18a0.28,0.28,0,0,1,.28.28v10a0.28,0.28,0,0,1-.28.28h-11a0.28,0.28,0,0,0-.28.28v17.9c0.06,4,2,6.07,5.8,6.07a14.14,14.14,0,0,0,4.86-1,0.28,0.28,0,0,1,.36.17l2.79,8.27A0.28,0.28,0,0,1,35.68,58.38Z" transform="translate(-0.32 -0.18)"/></svg>