<svg id="Layer_1" data-name="Layer 1" xmlns="http://www.w3.org/2000/svg" viewBox="0 0 45.39 60.88"><defs><style>.cls-1{fill:#fff;}</style></defs><title>social_yelp_hover</title><path id="Yelp" class="cls-1" d="M7.63,2.75c3.1-2.4,9-3.1,11.4-2.6s3.7,1.8,3.7,3.4l.06,21.1c0,1.7-.9,3.2-1.9,3.4s-2.6-.8-3.5-2.2l-11-18C5.53,6.35,3.79,5.75,7.63,2.75Zm-3.7,40.2,11.2-4c1.6-.6,3-2.1,3.1-3.4a3.92,3.92,0,0,0-2.5-3.5l-11.8-4.7c-1.5-.6-3.3.8-3.8,3.2,0,0-.3,8.2,0,9.9A3.23,3.23,0,0,0,3.93,42.95Zm19.5,2c0-1.7-.9-3.1-2-3.2s-2.9.9-4,2.1l-7.8,9.3c-1.1,1.3-.5,4.3,1,4.8l8.1,2.8c1.6.6,4.3-1.1,4.3-2.8Zm19.36-2.2L33,39.95c-1.6-.5-3.4-.4-4,.1s-.5,2.1.3,3.6l6.2,11.3c.8,1.5,4,1.2,4.9-.2,0,0,3.7-5.5,4.4-7.5a3.44,3.44,0,0,0-1.92-4.47Zm2.34-15.94c-.4-1.4-3.5-5.6-5.1-7.1s-3.5-1.3-4.6,0l-6.3,7.5c-1.1,1.3-1.4,3.3-.6,4.4a4.18,4.18,0,0,0,4.2,1.5l10.9-2C45.53,30.75,45.63,28.35,45.13,26.81Z" transform="translate(0 0)"/></svg>