<svg id="Layer_1" data-name="Layer 1" xmlns="http://www.w3.org/2000/svg" viewBox="0 0 97.71 62.19"><defs><style>.cls-1{fill:#777;}</style></defs><title>social_media</title><g id="google"><g id="google_" data-name="google+"><path class="cls-1" d="M0.46,29.9c0.3-16,15-30,31-29.5,7.6-.4,14.8,3,20.7,7.7-2.5,2.8-5.1,5.6-7.9,8.2-7.1-4.9-17.1-6.3-24.2-.6-10.1,7-10.6,23.5-.8,31,9.4,8.6,27.3,4.3,29.9-8.8-5.9-.1-11.8,0-17.8-0.2V27.1h29.7c0.6,8.3-.5,17.1-5.6,24-7.7,10.9-23.2,14-35.3,9.4S-0.74,43,.46,29.9Z" transform="translate(-0.35 -0.36)"/><path class="cls-1" d="M80.26,18.1h8.8c0,3,0,5.9.1,8.9,3,0,5.9,0,8.9.1v8.8c-3,0-5.9,0-8.9.1,0,3,0,5.9-.1,8.9h-8.8c0-3,0-5.9-.1-8.9-3,0-5.9-.1-8.9-0.1V27.1c3,0,5.9,0,8.9-.1C80.26,24,80.26,21,80.26,18.1Z" transform="translate(-0.35 -0.36)"/></g></g></svg>