<svg id="Layer_1" data-name="Layer 1" xmlns="http://www.w3.org/2000/svg" viewBox="0 0 47.8 61.44"><defs><style>.cls-1{fill:#777;}</style></defs><title>social_media</title><path id="Pinterest" class="cls-1" d="M19.94,40.78c-1.61,8.46-3.58,16.57-9.42,20.8C8.72,48.8,13.17,39.2,15.23,29c-3.52-5.93.42-17.86,7.85-14.92,9.14,3.61-7.91,22,3.53,24.34,12,2.4,16.83-20.74,9.42-28.26C25.33-.7,4.86,9.92,7.38,25.47c0.61,3.8,4.54,5,1.57,10.21C2.1,34.16.05,28.76,0.31,21.55,0.74,9.75,10.91,1.49,21.12.35,34-1.09,46.14,5.09,47.81,17.23,49.69,30.93,42,45.78,28.18,44.71,24.44,44.42,22.87,42.57,19.94,40.78Z" transform="translate(-0.29 -0.15)"/></svg>