<?xml version="1.0" encoding="utf-8"?>
<!-- Generator: Adobe Illustrator 20.0.0, SVG Export Plug-In . SVG Version: 6.00 Build 0)  -->
<svg version="1.1" id="Layer_1" xmlns="http://www.w3.org/2000/svg" xmlns:xlink="http://www.w3.org/1999/xlink" x="0px" y="0px"
	 viewBox="0 0 60 60" style="enable-background:new 0 0 60 60;" xml:space="preserve">
<style type="text/css">
	.st0{fill:#FFFFFF;}
	.st1{fill:#777777;}
	.st2{fill:#7DCCD8;}
</style>
<g>
	<g>
		<g>
			<circle class="st0" cx="30" cy="30" r="29.4"/>
			<path class="st1" d="M30,60c-4.1,0-8-0.8-11.7-2.4c-3.6-1.5-6.8-3.7-9.5-6.4c-2.8-2.8-4.9-6-6.4-9.5C0.8,38,0,34.1,0,30
				c0-4.1,0.8-8,2.4-11.7c1.5-3.6,3.7-6.8,6.4-9.5c2.8-2.8,6-4.9,9.5-6.4C22,0.8,26,0,30,0c4.1,0,8,0.8,11.7,2.4
				c3.6,1.5,6.8,3.7,9.5,6.4c2.8,2.8,4.9,6,6.4,9.5C59.2,22,60,26,60,30c0,4.1-0.8,8-2.4,11.7c-1.5,3.6-3.7,6.8-6.4,9.5
				c-2.8,2.8-6,4.9-9.5,6.4C38,59.2,34.1,60,30,60z M30,1.2c-7.7,0-14.9,3-20.3,8.4C4.2,15.1,1.2,22.3,1.2,30c0,7.7,3,14.9,8.4,20.3
				c5.4,5.4,12.7,8.4,20.3,8.4c7.7,0,14.9-3,20.3-8.4c5.4-5.4,8.4-12.7,8.4-20.3c0-7.7-3-14.9-8.4-20.3C44.9,4.2,37.7,1.2,30,1.2z"
				/>
		</g>
	</g>
	<g>
		<circle class="st1" cx="30" cy="30" r="27.3"/>
	</g>
	<g>
		<g>
			<path class="st0" d="M49.7,42l-1.3-0.8c2.1-3.4,3.2-7.3,3.2-11.2c0-1.8-0.2-3.5-0.6-5.2l1.4-0.4c0.5,1.8,0.7,3.7,0.7,5.6
				C53.1,34.2,51.9,38.4,49.7,42z"/>
		</g>
		<g>
			<path class="st0" d="M10.3,42c-2.2-3.6-3.4-7.8-3.4-12c0-1.9,0.2-3.8,0.7-5.7l1.4,0.4c-0.4,1.7-0.7,3.5-0.7,5.3
				c0,4,1.1,7.9,3.2,11.2L10.3,42z"/>
		</g>
	</g>
	<g>
		<path class="st2" d="M23,37.7C23.1,37.7,23.1,37.7,23,37.7c1.6-0.3,3.1-0.5,4.7-0.6v-5.4c0-0.3,0.1-0.6,0.2-0.9h-5.6
			c-0.1,0-0.3,0.1-0.4,0.2c-0.1,0.1-0.1,0.2-0.1,0.4c0.1,2.1,0.3,4.2,0.7,6C22.6,37.6,22.8,37.7,23,37.7z"/>
		<path class="st0" d="M41.7,29.2v-3.5c0-2.6-2.1-4.7-4.7-4.7h-1.3c-2.6,0-4.7,2.1-4.7,4.7v3.5h2.3v-3.5c0-1.3,1.1-2.3,2.3-2.3H37
			c1.3,0,2.3,1.1,2.3,2.3v3.5H41.7z"/>
		<path class="st0" d="M42.3,30.8h-12c-0.5,0-0.9,0.4-0.9,0.9V41c0,0.5,0.4,0.9,0.9,0.9h12c0.5,0,0.9-0.4,0.9-0.9v-9.3
			C43.3,31.3,42.8,30.8,42.3,30.8z M37.3,36.4v2.8c0,0.5-0.4,1-1,1c-0.5,0-1-0.4-1-1v-2.8c-0.5-0.3-0.8-0.9-0.8-1.5
			c0-1,0.8-1.8,1.8-1.8c1,0,1.8,0.8,1.8,1.8C38.1,35.5,37.8,36,37.3,36.4z"/>
		<path class="st2" d="M43.3,29.2h3.6c0.1,0,0.3-0.1,0.4-0.2c0.1-0.1,0.1-0.2,0.1-0.4c-0.2-3-1.2-5.9-2.9-8.3
			c-0.1-0.2-0.4-0.3-0.7-0.2c-0.7,0.4-1.5,0.8-2.4,1.1c1.2,1.1,1.9,2.7,1.9,4.5V29.2L43.3,29.2z"/>
		<path class="st2" d="M35.7,25c-0.4,0-0.7,0.3-0.7,0.7v3.5v0h2.7v0v-3.5c0-0.4-0.3-0.7-0.7-0.7H35.7z"/>
		<path class="st2" d="M31,21.4c1.2-1.2,2.8-2,4.6-2h0.9c-1.2-3.3-3-5.7-5-6.5c-0.2-0.1-0.3,0-0.5,0c-0.1,0.1-0.2,0.3-0.2,0.4V21
			C30.8,21.1,30.9,21.2,31,21.4C31,21.3,31,21.4,31,21.4z"/>
		<path class="st2" d="M35.9,45.5c-0.1,0.2-0.1,0.4,0,0.6c0.1,0.1,0.2,0.2,0.4,0.2c0.1,0,0.1,0,0.2,0c1.6-0.7,3.1-1.5,4.5-2.6h-4
			C36.6,44.3,36.3,44.9,35.9,45.5z"/>
		<path class="st2" d="M46.9,30.8h-2.2c0.1,0.3,0.2,0.6,0.2,0.9v7.3c1.4-2.3,2.3-5,2.5-7.7c0-0.1,0-0.3-0.1-0.4
			C47.2,30.9,47,30.8,46.9,30.8z"/>
		<path class="st2" d="M30.8,46.7c0,0.2,0.1,0.3,0.2,0.4c0.1,0.1,0.2,0.1,0.3,0.1c0.1,0,0.1,0,0.2,0c1.3-0.6,2.5-1.8,3.6-3.5h-4.3
			V46.7z"/>
		<path class="st2" d="M27.7,41v-2.2c-1.4,0.1-2.8,0.3-4.1,0.5c-0.1,0-0.3,0.1-0.3,0.2c-0.1,0.1-0.1,0.3,0,0.4
			c1.2,3.7,3.1,6.3,5.2,7.2c0.1,0,0.1,0,0.2,0c0.1,0,0.2,0,0.3-0.1c0.1-0.1,0.2-0.3,0.2-0.4v-3.3C28.3,42.9,27.7,42.1,27.7,41z"/>
		<path class="st2" d="M38.4,19.9c0.1,0.2,0.3,0.4,0.5,0.4c0.1,0,0.1,0,0.1,0c1.3-0.4,2.5-0.8,3.5-1.4c0.1-0.1,0.2-0.2,0.3-0.4
			c0-0.2,0-0.3-0.1-0.4c-1.8-1.9-3.9-3.3-6.3-4.3c-0.2-0.1-0.5,0-0.6,0.2c-0.1,0.2-0.1,0.4,0,0.6C36.9,16,37.8,17.8,38.4,19.9z"/>
		<path class="st2" d="M28.7,23.1c-2-0.1-3.9-0.3-5.6-0.6c-0.3-0.1-0.5,0.1-0.6,0.4c-0.4,1.8-0.6,3.7-0.7,5.8c0,0.1,0,0.3,0.1,0.4
			c0.1,0.1,0.2,0.2,0.4,0.2h6.4c0.3,0,0.5-0.2,0.5-0.5v-5C29.2,23.4,29,23.1,28.7,23.1z"/>
		<path class="st2" d="M13.1,29.2h6.5c0.3,0,0.5-0.2,0.5-0.5c0.1-2.2,0.3-4.3,0.7-6.2c0.1-0.3-0.1-0.5-0.4-0.6
			c-1.6-0.5-3.1-1-4.4-1.7c-0.2-0.1-0.5,0-0.7,0.2c-1.7,2.5-2.7,5.3-2.9,8.3c0,0.1,0,0.3,0.1,0.4C12.8,29.1,13,29.2,13.1,29.2z"/>
		<path class="st2" d="M29,12.9c-0.1-0.1-0.3-0.1-0.5,0c-2.1,0.9-4.1,3.6-5.3,7.4c0,0.1,0,0.3,0,0.4c0.1,0.1,0.2,0.2,0.3,0.2
			c1.6,0.3,3.4,0.5,5.1,0.6h0c0.1,0,0.3-0.1,0.4-0.1c0.1-0.1,0.2-0.2,0.2-0.4v-7.6C29.2,13.2,29.1,13,29,12.9z"/>
		<path class="st2" d="M21,37.7c-0.5-2-0.7-4.1-0.8-6.4c0-0.3-0.2-0.5-0.5-0.5h-6.5c-0.1,0-0.3,0.1-0.4,0.2
			c-0.1,0.1-0.1,0.2-0.1,0.4c0.2,3,1.3,6,3,8.5c0.1,0.1,0.3,0.2,0.4,0.2c0.1,0,0.2,0,0.2-0.1c1.3-0.7,2.7-1.2,4.3-1.7
			C20.9,38.3,21,38,21,37.7z"/>
		<path class="st2" d="M17.4,18.9c1,0.5,2.1,1,3.5,1.4c0,0,0.1,0,0.1,0c0.2,0,0.4-0.1,0.5-0.4c0.7-2.1,1.5-3.9,2.6-5.4
			c0.1-0.2,0.1-0.4,0-0.6c-0.1-0.2-0.4-0.2-0.6-0.2c-2.4,1-4.5,2.4-6.3,4.3c-0.1,0.1-0.2,0.3-0.1,0.4C17.2,18.7,17.3,18.8,17.4,18.9
			z"/>
		<path class="st2" d="M21.6,40.3c-0.1-0.3-0.4-0.4-0.6-0.3c-1.3,0.4-2.5,0.8-3.5,1.3c-0.1,0.1-0.3,0.2-0.3,0.4c0,0.2,0,0.3,0.1,0.4
			c1.7,1.8,3.8,3.2,6.1,4.2c0.1,0,0.1,0,0.2,0c0.2,0,0.3-0.1,0.4-0.2c0.1-0.2,0.1-0.4,0-0.6C23.2,44,22.3,42.3,21.6,40.3z"/>
	</g>
	<g>
		<path class="st0" d="M11,16.8c-0.1,0-0.8,0.4-1.1,0.9c-0.2,0.3-0.2,0.6,0,0.7c0.3,0.2,0.6-0.1,1.1-0.6c0.7-0.7,1.3-1.1,2.1-0.6
			c1,0.6,0.8,1.6,0.3,2.4c-0.4,0.6-1,1.2-1.7,1.5l-0.6-1c0.1,0,1-0.5,1.4-1.1c0.2-0.4,0.2-0.6,0-0.7c-0.3-0.2-0.7,0.2-1.2,0.7
			c-0.7,0.7-1.3,0.8-1.9,0.5c-0.9-0.6-1-1.6-0.4-2.5c0.4-0.6,1-1,1.4-1.3L11,16.8z"/>
		<path class="st0" d="M14.6,12.7c-0.1,0-0.9,0.2-1.3,0.6C13,13.6,13,13.8,13.2,14c0.2,0.2,0.6,0,1.2-0.3c0.9-0.5,1.5-0.7,2.2-0.1
			c0.8,0.8,0.5,1.7-0.2,2.4c-0.5,0.5-1.3,0.9-2,1.1L14,16.1c0.1,0,1-0.2,1.6-0.8c0.3-0.3,0.3-0.5,0.2-0.7c-0.3-0.3-0.7,0-1.3,0.4
			c-0.9,0.5-1.4,0.5-2,0c-0.8-0.8-0.6-1.8,0.1-2.5c0.5-0.5,1.2-0.8,1.7-0.9L14.6,12.7z"/>
		<path class="st0" d="M18.4,14.2l-2.7-4.3l1-0.6l2.1,3.4l2.1-1.3l0.5,0.9L18.4,14.2z"/>
		<path class="st0" d="M26.1,7.1C26,7,25.3,6.8,24.7,6.9c-0.4,0.1-0.6,0.3-0.5,0.6c0.1,0.3,0.5,0.3,1.2,0.4c1,0,1.7,0.2,1.9,1.1
			c0.3,1.1-0.6,1.7-1.5,1.9C25,11,24.2,11,23.5,10.8l0.3-1.1c0.1,0.1,1,0.4,1.8,0.2c0.4-0.1,0.6-0.3,0.5-0.5C26,9,25.4,9,24.7,8.9
			c-1-0.1-1.5-0.3-1.7-1c-0.2-1,0.5-1.8,1.4-2c0.7-0.2,1.4,0,1.9,0.1L26.1,7.1z"/>
		<path class="st0" d="M32.1,9.3l0,1l-3.6-0.1l0.1-5.1l3.5,0.1l0,1l-2.3,0l0,1l2,0l0,0.9l-2,0l0,1.1L32.1,9.3z"/>
		<path class="st0" d="M36.4,6.1c0.9,0.2,1.4,0.8,1.6,1.5L37,8c-0.1-0.6-0.5-0.8-0.8-0.9c-0.8-0.2-1.4,0.5-1.6,1.2
			C34.4,9,34.7,9.8,35.4,10c0.4,0.1,0.9,0,1.2-0.4l0.8,0.8c-0.5,0.7-1.5,0.8-2.3,0.6c-1.4-0.3-2-1.9-1.7-3.1
			C33.7,6.7,34.9,5.7,36.4,6.1z"/>
		<path class="st0" d="M41.9,11.2L43.2,9l1,0.6l-1.3,2.3c-0.7,1.2-1.8,1.9-3.2,1.1c-1.4-0.8-1.4-2.1-0.7-3.3l1.3-2.3l1,0.6L40,10.2
			c-0.4,0.7-0.5,1.4,0.2,1.8C40.9,12.4,41.5,11.9,41.9,11.2z"/>
		<path class="st0" d="M42.6,14.7l3.6-3.6l1.6,1.6c0.7,0.7,0.6,1.8,0,2.4c-0.4,0.4-1.1,0.6-1.6,0.5l-0.5,2.2l-0.9-0.9l0.4-1.9
			l-0.5-0.5l-1.2,1.2L42.6,14.7z M45.3,13.6l0.8,0.8c0.2,0.2,0.6,0.2,0.9-0.1c0.3-0.3,0.3-0.7,0.1-0.9l-0.7-0.7L45.3,13.6z"/>
		<path class="st0" d="M48.7,21l-0.9,0.5L46,18.4l4.3-2.6l1.8,3l-0.9,0.5l-1.2-2l-0.8,0.5l1,1.7l-0.8,0.5l-1-1.7l-0.9,0.6L48.7,21z"
			/>
	</g>
	<g>
		<path class="st0" d="M16.7,44.7l0.8,0.7L16.9,47l1.4-0.9l0.8,0.7L17,48l-0.4,1.4l3.3-2.1l1,0.8l-4.7,2.7l-0.8-0.6l0.6-2l-1.9,1
			l-0.8-0.6l1.6-5.2l1,0.8l-1.3,3.7l1.2-0.8L16.7,44.7z"/>
		<path class="st0" d="M23.5,53.1l-0.4,1l-3.3-1.3l1.8-4.7l3.3,1.2l-0.4,1l-2.2-0.8L22,50.4l1.9,0.7L23.5,52l-1.9-0.7l-0.4,1
			L23.5,53.1z"/>
		<path class="st0" d="M27.7,54.9l-2.5-0.3l0.6-5l2.8,0.3c0.7,0.1,1.1,0.8,1,1.4c-0.1,0.5-0.4,0.9-0.9,1.1c0.6,0.2,0.9,0.7,0.8,1.4
			C29.5,54.7,28.7,55,27.7,54.9z M28,52.8l-1.3-0.2l-0.1,1.1l1.3,0.2c0.3,0,0.6-0.2,0.6-0.5C28.5,53.1,28.3,52.9,28,52.8z
			 M26.9,50.7l-0.1,1l1.1,0.1c0.3,0,0.5-0.1,0.6-0.5c0-0.3-0.1-0.5-0.4-0.6L26.9,50.7z"/>
		<path class="st0" d="M34.2,51.1c-0.1-0.1-0.8-0.4-1.4-0.3c-0.4,0.1-0.6,0.2-0.6,0.5c0,0.3,0.4,0.4,1.1,0.5c1,0.1,1.6,0.4,1.8,1.3
			c0.1,1.1-0.7,1.7-1.7,1.8c-0.7,0.1-1.6,0-2.2-0.3l0.4-1.1c0.1,0.1,1,0.5,1.7,0.4c0.4-0.1,0.6-0.2,0.6-0.5c0-0.4-0.6-0.4-1.3-0.5
			c-1-0.2-1.4-0.5-1.5-1.2c-0.1-1.1,0.6-1.7,1.6-1.9c0.7-0.1,1.4,0.1,1.9,0.3L34.2,51.1z"/>
		<path class="st0" d="M37.2,54l-1.6-4.8l1.1-0.4l1.6,4.8L37.2,54z"/>
		<path class="st0" d="M41.9,47.4l-1.3,0.7l2,3.5l-1,0.6l-2-3.5l-1.4,0.7l-0.5-0.9l3.7-2.1L41.9,47.4z"/>
		<path class="st0" d="M47.4,46.6l0.7,0.8l-2.6,2.4L42,46l2.6-2.4l0.7,0.8l-1.7,1.6l0.7,0.7l1.5-1.3l0.6,0.7l-1.5,1.3l0.7,0.8
			L47.4,46.6z"/>
	</g>
</g>
</svg>
